# xmcd
#
# Track frame offsets: 
#        150
#        9873
#        20817
#        30176
#        38923
#        50443
#        59802
#        68596
#        77320
#        85773
#        95860
#        105677
#
# Disc length: 1543 seconds
#
# Revision: 0
# Processed by: cddbd v1.5.2PL0 Copyright (c) Steve Scherf et al.
# Submitted via: ExactAudioCopy v1.3
#
DISCID=8c06050c
DTITLE=Loretta Lynn - 20th Century Masters: The Christmas Collection
DYEAR=2005
DGENRE=Christmac/Country
TTITLE0=Country Christmas
TTITLE1=Away In A Manger
TTITLE2=Santa Claus Is Comin' To Town
TTITLE3=Silver Bells
TTITLE4=Blue Christmas
TTITLE5=It Won't Seem Like Christmas
TTITLE6=To Heck With Ole Santa Claus
TTITLE7=White Christmas
TTITLE8=Frosty The Snowman
TTITLE9=Christmas Without Daddy
TTITLE10=I Won't Decorate Your Christmas Tree
TTITLE11=Gift Of The Blues
EXTD=
EXTT0=
EXTT1=
EXTT2=
EXTT3=
EXTT4=
EXTT5=
EXTT6=
EXTT7=
EXTT8=
EXTT9=
EXTT10=
EXTT11=
PLAYORDER=
